<svg width="360" height="640" viewBox="0 0 360 640" fill="none" xmlns="http://www.w3.org/2000/svg">
<g clip-path="url(#clip0_1_2)">
<rect width="360" height="640" rx="20" fill="#FFFBFE"/>
<path fill-rule="evenodd" clip-rule="evenodd" d="M-93.495 71.6619C-105.104 -10.9162 -131.033 -110.996 -70.0183 -167.839C-10.3674 -223.412 83.7685 -166.604 165.247 -169.391C226.927 -171.501 286.487 -206.987 342.903 -181.966C410.07 -152.177 471.926 -98.4722 487.207 -26.6014C502.884 47.138 470.439 124.33 419.92 180.287C374.238 230.885 301.785 231.848 236.414 251.182C154.683 275.354 71.3927 346.246 -3.4724 305.508C-79.742 264.006 -81.4068 157.646 -93.495 71.6619Z" fill="#553F6D"/>
<path fill-rule="evenodd" clip-rule="evenodd" d="M-59.495 293.662C-71.1043 211.084 -97.0328 111.004 -36.0183 54.161C23.6326 -1.41183 117.768 55.3964 199.247 52.6088C260.927 50.4986 320.487 15.0132 376.903 40.0339C444.07 69.823 505.926 123.528 521.207 195.399C536.884 269.138 504.439 346.33 453.92 402.287C408.238 452.885 335.785 453.848 270.414 473.182C188.683 497.354 105.393 568.246 30.5276 527.508C-45.742 486.006 -47.4068 379.646 -59.495 293.662Z" fill="#715493"/>
<path fill-rule="evenodd" clip-rule="evenodd" d="M129.764 526.776C74.2987 493.52 45.5543 437.798 9.22348 384.296C-42.1393 308.658 -155.352 240.819 -122.307 155.571C-89.3007 70.4233 41.1342 101.159 128.839 75.716C197.202 55.8843 258.223 10.3584 327.888 24.9714C409.538 42.0985 494.548 82.7854 527.64 159.369C560.707 235.895 520.053 319.568 488.531 396.744C457.546 472.608 428.904 561.814 351.86 589.738C276.653 616.996 198.37 567.912 129.764 526.776Z" fill="#8273A9"/>
<path fill-rule="evenodd" clip-rule="evenodd" d="M367.851 326.256C373.861 409.386 439.155 495.895 395.038 565.076C348.983 637.295 250.572 638.593 168.615 638.68C83.0788 638.771 -19.9188 640.397 -68.1523 565.569C-115.009 492.877 -120.739 432.416 -107.079 345.286C-96.3702 276.981 -49.0039 161.1 2.03626 117.879C52.0859 75.4968 122.577 115.746 186.364 119.061C248.147 122.271 322.006 88.6737 364.064 136.69C406.114 184.697 363.115 260.761 367.851 326.256Z" fill="#E7DFF0"/>
<rect y="304" width="360" height="344" fill="#FFFBFE"/>
<path d="M126.469 164H121.859L110.672 145.766H110.531C110.573 146.38 110.609 147.031 110.641 147.719C110.682 148.406 110.714 149.115 110.734 149.844C110.766 150.573 110.792 151.312 110.812 152.062V164H107.406V141.156H111.984L123.156 159.266H123.266C123.245 158.734 123.219 158.125 123.188 157.438C123.156 156.75 123.125 156.042 123.094 155.312C123.073 154.573 123.057 153.859 123.047 153.172V141.156H126.469V164ZM147.172 146.703V164H144.281L143.781 161.672H143.578C143.214 162.266 142.75 162.76 142.188 163.156C141.625 163.542 141 163.828 140.312 164.016C139.625 164.214 138.901 164.312 138.141 164.312C136.839 164.312 135.724 164.094 134.797 163.656C133.88 163.208 133.177 162.521 132.688 161.594C132.198 160.667 131.953 159.469 131.953 158V146.703H135.641V157.312C135.641 158.656 135.911 159.661 136.453 160.328C137.005 160.995 137.859 161.328 139.016 161.328C140.13 161.328 141.016 161.099 141.672 160.641C142.328 160.182 142.792 159.505 143.062 158.609C143.344 157.714 143.484 156.615 143.484 155.312V146.703H147.172ZM158.875 161.344C159.354 161.344 159.828 161.302 160.297 161.219C160.766 161.125 161.193 161.016 161.578 160.891V163.672C161.172 163.849 160.646 164 160 164.125C159.354 164.25 158.682 164.312 157.984 164.312C157.005 164.312 156.125 164.151 155.344 163.828C154.562 163.495 153.943 162.927 153.484 162.125C153.026 161.323 152.797 160.214 152.797 158.797V149.5H150.438V147.859L152.969 146.562L154.172 142.859H156.484V146.703H161.438V149.5H156.484V158.75C156.484 159.625 156.703 160.276 157.141 160.703C157.578 161.13 158.156 161.344 158.875 161.344ZM173.859 146.375C174.151 146.375 174.469 146.391 174.812 146.422C175.156 146.453 175.453 146.495 175.703 146.547L175.359 149.984C175.141 149.922 174.87 149.875 174.547 149.844C174.234 149.812 173.953 149.797 173.703 149.797C173.047 149.797 172.422 149.906 171.828 150.125C171.234 150.333 170.708 150.656 170.25 151.094C169.792 151.521 169.432 152.057 169.172 152.703C168.911 153.349 168.781 154.099 168.781 154.953V164H165.094V146.703H167.969L168.469 149.75H168.641C168.984 149.135 169.411 148.573 169.922 148.062C170.432 147.552 171.016 147.146 171.672 146.844C172.339 146.531 173.068 146.375 173.859 146.375ZM182.578 146.703V164H178.906V146.703H182.578ZM180.766 140.078C181.328 140.078 181.812 140.229 182.219 140.531C182.635 140.833 182.844 141.354 182.844 142.094C182.844 142.823 182.635 143.344 182.219 143.656C181.812 143.958 181.328 144.109 180.766 144.109C180.182 144.109 179.688 143.958 179.281 143.656C178.885 143.344 178.688 142.823 178.688 142.094C178.688 141.354 178.885 140.833 179.281 140.531C179.688 140.229 180.182 140.078 180.766 140.078ZM206.234 164H202.5V153.688H191.969V164H188.219V141.156H191.969V150.5H202.5V141.156H206.234V164ZM218.797 146.375C220.339 146.375 221.661 146.693 222.766 147.328C223.87 147.964 224.719 148.865 225.312 150.031C225.906 151.198 226.203 152.594 226.203 154.219V156.188H214.656C214.698 157.865 215.146 159.156 216 160.062C216.865 160.969 218.073 161.422 219.625 161.422C220.729 161.422 221.719 161.318 222.594 161.109C223.479 160.891 224.391 160.573 225.328 160.156V163.141C224.464 163.547 223.583 163.844 222.688 164.031C221.792 164.219 220.719 164.312 219.469 164.312C217.771 164.312 216.276 163.984 214.984 163.328C213.703 162.661 212.698 161.672 211.969 160.359C211.25 159.047 210.891 157.417 210.891 155.469C210.891 153.531 211.219 151.885 211.875 150.531C212.531 149.177 213.453 148.146 214.641 147.438C215.828 146.729 217.214 146.375 218.797 146.375ZM218.797 149.141C217.641 149.141 216.703 149.516 215.984 150.266C215.276 151.016 214.859 152.115 214.734 153.562H222.609C222.599 152.698 222.453 151.932 222.172 151.266C221.901 150.599 221.484 150.078 220.922 149.703C220.37 149.328 219.661 149.141 218.797 149.141ZM234.031 164H230.344V139.688H234.031V164ZM248.156 146.375C250.208 146.375 251.854 147.125 253.094 148.625C254.344 150.125 254.969 152.354 254.969 155.312C254.969 157.271 254.677 158.922 254.094 160.266C253.521 161.599 252.714 162.609 251.672 163.297C250.641 163.974 249.438 164.312 248.062 164.312C247.188 164.312 246.427 164.198 245.781 163.969C245.135 163.74 244.583 163.443 244.125 163.078C243.667 162.703 243.281 162.297 242.969 161.859H242.75C242.802 162.276 242.849 162.74 242.891 163.25C242.943 163.75 242.969 164.208 242.969 164.625V171.672H239.281V146.703H242.281L242.797 149.094H242.969C243.292 148.604 243.682 148.151 244.141 147.734C244.609 147.318 245.172 146.99 245.828 146.75C246.495 146.5 247.271 146.375 248.156 146.375ZM247.172 149.375C246.161 149.375 245.349 149.578 244.734 149.984C244.13 150.38 243.688 150.979 243.406 151.781C243.135 152.583 242.99 153.589 242.969 154.797V155.312C242.969 156.594 243.099 157.682 243.359 158.578C243.63 159.464 244.073 160.141 244.688 160.609C245.312 161.068 246.156 161.297 247.219 161.297C248.115 161.297 248.854 161.052 249.438 160.562C250.031 160.073 250.474 159.375 250.766 158.469C251.057 157.562 251.203 156.495 251.203 155.266C251.203 153.401 250.87 151.953 250.203 150.922C249.547 149.891 248.536 149.375 247.172 149.375Z" fill="black"/>
<path d="M183.288 250.69C181.073 248.697 180.693 246.477 182.096 244.212C183.174 242.472 185.491 241.888 187.821 242.767C190.369 243.729 191.359 246.924 189.754 249.264C189.1 250.217 188.612 251.113 188.697 252.334C189.112 258.294 188.82 264.265 188.886 270.23C188.896 271.2 188.894 272.158 189.535 273C190.622 274.428 192.235 274.978 194.021 274.465C195.663 273.994 196.802 272.53 196.831 270.694C196.87 268.195 196.833 265.694 196.833 263.195C196.833 261.508 197.836 260.171 199.135 260.112C200.495 260.05 201.781 261.419 201.804 263.072C201.842 265.724 201.899 268.381 201.788 271.03C201.651 274.335 200.045 276.929 197.157 278.446C194.013 280.097 190.74 279.999 187.743 277.94C186.765 277.269 186.183 277.126 185.143 277.924C182.288 280.117 177.534 280.024 174.695 277.832C173.817 277.154 173.314 277.207 172.37 277.878C169.427 279.968 166.137 280.148 162.96 278.534C160.056 277.058 158.311 274.547 158.246 271.198C158.154 266.455 158.174 261.709 158.246 256.965C158.268 255.556 157.809 255.094 156.411 255.114C151.872 255.179 147.33 255.17 142.79 255.129C138.768 255.094 135.623 252.858 134.518 249.293C133.555 246.186 133.883 243.254 135.937 240.646C136.502 239.928 136.387 239.369 135.842 238.76C133.383 236.009 133.467 230.465 135.911 227.718C136.528 227.024 136.371 226.49 135.876 225.842C132.558 221.502 133.876 215.348 138.247 212.616C139.763 211.669 141.482 211.484 143.244 211.509C145.146 211.537 146.945 211.692 148.583 210.054C150.043 208.594 153.354 209.288 154.513 210.852C155.983 212.835 155.768 215.863 154.045 217.422C152.483 218.837 149.422 218.752 147.909 217.158C147.32 216.536 146.714 216.289 145.896 216.32C144.877 216.36 143.856 216.327 142.836 216.342C140.65 216.374 138.84 218.156 138.807 220.296C138.775 222.47 140.63 224.43 142.865 224.439C149.803 224.467 156.741 224.412 163.679 224.453C167.991 224.479 172.178 225.064 176.069 227.184C179.723 229.176 182.505 231.983 184.508 235.573C185.396 237.164 185.002 238.549 183.683 239.276C182.479 239.94 181.105 239.307 180.172 237.755C177.242 232.881 172.882 230.054 167.28 229.519C159.196 228.746 151.072 229.293 142.966 229.222C140.484 229.201 138.72 231.11 138.806 233.4C138.894 235.727 140.533 237.228 143.046 237.27C143.913 237.284 144.782 237.248 145.647 237.286C147.227 237.354 148.365 238.435 148.365 239.821C148.365 241.106 147.259 242.188 145.735 242.302C144.822 242.369 143.899 242.308 142.981 242.327C140.412 242.379 138.737 244.021 138.806 246.405C138.871 248.67 140.485 250.14 142.952 250.142C148.462 250.148 153.972 250.134 159.481 250.134C162.235 250.134 163.249 251.154 163.251 253.934C163.255 259.341 163.242 264.749 163.249 270.157C163.253 273.148 164.509 274.615 167.023 274.617C169.63 274.618 171.043 273.056 171.049 270.166C171.051 269.146 171.038 268.125 171.056 267.105C171.085 265.494 172.191 264.184 173.538 264.139C174.805 264.097 175.94 265.313 176.028 266.926C176.097 268.198 176.032 269.476 176.06 270.751C176.11 273.045 177.685 274.619 179.898 274.618C182.267 274.616 183.93 273.116 183.94 270.794C183.965 264.622 183.923 258.449 183.906 252.276C183.904 251.713 183.919 251.139 183.288 250.69Z" fill="black"/>
<path d="M220.96 227.867C220.959 227.051 220.892 226.379 220.969 225.725C221.599 220.405 216.444 215.964 211.487 216.291C207.677 216.543 203.836 216.354 200.009 216.335C197.728 216.323 196.855 215.453 196.846 213.185C196.831 209.358 196.769 205.529 196.867 201.704C197.02 195.709 192.37 191.51 186.719 191.916C182.053 192.251 177.339 191.884 172.646 191.866C168.231 191.85 165.028 194.112 163.528 198.2C163.347 198.695 163.274 199.182 163.272 199.693C163.26 203.111 163.289 206.531 163.223 209.948C163.2 211.171 163.686 211.56 164.849 211.534C168.365 211.457 171.924 211.316 175.336 212.252C179.527 213.402 183.358 215.305 186.808 218.073C191.646 221.954 195.184 226.742 197.81 232.299C199.567 236.014 200.623 239.95 201.318 243.953C201.997 247.871 201.953 251.873 201.737 255.847C201.667 257.136 200.274 258.267 199.131 258.212C197.933 258.155 196.894 256.989 196.848 255.574C196.738 252.265 196.955 248.958 196.514 245.646C195 234.275 189.842 225.205 179.839 219.285C176.668 217.408 173.096 216.391 169.339 216.343C166.686 216.31 164.032 216.342 161.379 216.323C159.172 216.307 158.251 215.449 158.238 213.303C158.213 208.915 158.144 204.524 158.263 200.139C158.426 194.184 163.128 188.094 169.651 187.302C173.725 186.807 177.795 187.106 181.864 187.07C184.753 187.045 187.646 186.828 190.547 187.312C194.802 188.023 197.802 190.431 199.905 193.99C201.32 196.386 201.902 199.08 201.822 201.908C201.751 204.407 201.807 206.908 201.804 209.409C201.802 211.493 201.813 211.51 203.964 211.515C206.465 211.522 208.971 211.634 211.464 211.499C219.786 211.049 225.945 217.389 225.951 225.746C225.954 231.053 226.069 236.362 225.935 241.666C225.769 248.212 221.339 253.41 215.63 254.714C214.43 254.988 213.38 255.395 212.404 256.256C210.581 257.865 207.684 257.574 206.015 255.822C204.665 254.405 204.533 251.507 205.749 250.006C207.462 247.89 209.974 247.36 212.065 249.057C213.679 250.366 215.025 250.074 216.487 249.15C219.235 247.413 220.98 245.06 220.963 241.642C220.94 237.101 220.959 232.56 220.96 227.867Z" fill="black"/>
<path d="M167.019 238.693C171.152 239.905 173.586 242.723 174.842 246.54C176.147 250.507 176.164 254.656 176.054 258.793C176.005 260.658 175.068 261.726 173.464 261.705C171.889 261.685 171.116 260.716 171.042 258.843C170.914 255.598 171.315 252.352 170.525 249.105C169.456 244.713 166.334 243.093 163.135 242.667C162.53 242.587 161.908 242.607 161.313 242.485C160.254 242.269 159.437 242.395 158.556 243.221C156.916 244.759 155.163 244.899 153.354 243.826C151.665 242.823 150.612 241.362 150.863 239.287C151.11 237.248 152.398 236.029 154.251 235.338C155.69 234.8 157.086 235.148 158.114 236.102C159.393 237.289 160.914 237.377 162.446 237.639C163.949 237.897 165.475 238.063 167.019 238.693Z" fill="black"/>
</g>
<defs>
<clipPath id="clip0_1_2">
<rect width="360" height="640" rx="20" fill="white"/>
</clipPath>
</defs>
</svg>
