<svg id="visual" viewBox="0 0 900 600" width="900" height="600" xmlns="http://www.w3.org/2000/svg" xmlns:xlink="http://www.w3.org/1999/xlink" version="1.1"><rect x="0" y="0" width="900" height="600" fill="#e5f0f9"></rect><path d="M256 0L309.2 20C362.3 40 468.7 80 496.7 120C524.7 160 474.3 200 425 240C375.7 280 327.3 320 344.8 360C362.3 400 445.7 440 459.5 480C473.3 520 417.7 560 389.8 580L362 600L0 600L0 580C0 560 0 520 0 480C0 440 0 400 0 360C0 320 0 280 0 240C0 200 0 160 0 120C0 80 0 40 0 20L0 0Z" fill="#a969fa"></path><path d="M453 0L458.2 20C463.3 40 473.7 80 432 120C390.3 160 296.7 200 278 240C259.3 280 315.7 320 326 360C336.3 400 300.7 440 278.8 480C257 520 249 560 245 580L241 600L0 600L0 580C0 560 0 520 0 480C0 440 0 400 0 360C0 320 0 280 0 240C0 200 0 160 0 120C0 80 0 40 0 20L0 0Z" fill="#b25eed"></path><path d="M329 0L302.5 20C276 40 223 80 238.7 120C254.3 160 338.7 200 336.7 240C334.7 280 246.3 320 229.5 360C212.7 400 267.3 440 275 480C282.7 520 243.3 560 223.7 580L204 600L0 600L0 580C0 560 0 520 0 480C0 440 0 400 0 360C0 320 0 280 0 240C0 200 0 160 0 120C0 80 0 40 0 20L0 0Z" fill="#b951e0"></path><path d="M115 0L139.5 20C164 40 213 80 212.2 120C211.3 160 160.7 200 169.5 240C178.3 280 246.7 320 276.3 360C306 400 297 440 277.2 480C257.3 520 226.7 560 211.3 580L196 600L0 600L0 580C0 560 0 520 0 480C0 440 0 400 0 360C0 320 0 280 0 240C0 200 0 160 0 120C0 80 0 40 0 20L0 0Z" fill="#bf44d2"></path><path d="M132 0L143.7 20C155.3 40 178.7 80 169.3 120C160 160 118 200 104.2 240C90.3 280 104.7 320 109.5 360C114.3 400 109.7 440 103.7 480C97.7 520 90.3 560 86.7 580L83 600L0 600L0 580C0 560 0 520 0 480C0 440 0 400 0 360C0 320 0 280 0 240C0 200 0 160 0 120C0 80 0 40 0 20L0 0Z" fill="#c436c4"></path><path d="M14 0L38.2 20C62.3 40 110.7 80 119.5 120C128.3 160 97.7 200 91.8 240C86 280 105 320 105 360C105 400 86 440 74.3 480C62.7 520 58.3 560 56.2 580L54 600L0 600L0 580C0 560 0 520 0 480C0 440 0 400 0 360C0 320 0 280 0 240C0 200 0 160 0 120C0 80 0 40 0 20L0 0Z" fill="#c724b6"></path></svg>